<?xml version="1.0" standalone="no"?>
<!DOCTYPE svg PUBLIC "-//W3C//DTD SVG 20010904//EN"
 "http://www.w3.org/TR/2001/REC-SVG-20010904/DTD/svg10.dtd">
<svg version="1.0" xmlns="http://www.w3.org/2000/svg"
 width="337.000000pt" height="51.000000pt" viewBox="0 0 337.000000 51.000000"
 preserveAspectRatio="xMidYMid meet">
<metadata>
Created by potrace 1.16, written by Peter Selinger 2001-2019
</metadata>
<g transform="translate(0.000000,51.000000) scale(0.100000,-0.100000)"
fill="#000000" stroke="none">
<path d="M635 479 c-53 -26 -91 -64 -116 -116 -17 -36 -20 -58 -18 -127 4 -75
7 -89 34 -127 17 -24 50 -57 74 -74 40 -28 49 -30 134 -30 86 0 95 2 137 30
24 17 58 50 75 73 28 42 30 49 30 142 0 93 -2 100 -30 141 -44 63 -103 101
-166 107 -37 3 -50 2 -45 -7 4 -6 17 -11 30 -11 42 0 125 -50 155 -93 35 -52
42 -74 43 -135 0 -49 -51 -189 -65 -176 -3 3 -16 -4 -29 -15 -30 -28 -119 -54
-167 -48 -38 4 -88 32 -123 68 -10 10 -25 22 -34 27 -34 19 -44 173 -15 237
24 54 91 112 146 127 25 7 45 16 45 20 0 15 -55 7 -95 -13z"/>
<path d="M1149 398 c-12 -40 -32 -108 -44 -150 l-23 -78 24 0 c19 0 24 7 30
35 6 34 8 35 49 35 41 0 43 -1 49 -35 7 -35 8 -35 58 -35 36 0 49 4 46 13 -3
6 -22 74 -43 150 l-38 137 -43 0 -43 0 -22 -72z"/>
<path d="M1330 455 c0 -11 11 -15 40 -15 l40 0 0 -135 0 -135 50 0 50 0 0 135
0 135 30 0 c26 0 30 -5 40 -42 6 -24 18 -65 25 -93 8 -27 19 -69 25 -92 10
-40 13 -43 44 -43 34 0 34 0 52 73 17 72 18 72 26 37 30 -117 26 -110 63 -110
19 0 35 2 35 5 0 5 65 244 75 275 5 16 2 20 -17 20 -21 0 -26 -8 -43 -75 -10
-41 -20 -73 -23 -71 -2 3 -12 35 -21 73 -16 65 -19 68 -49 71 -33 3 -38 -6
-58 -106 -8 -41 -20 -41 -28 0 -3 18 -11 49 -17 70 l-10 38 -164 0 c-140 0
-165 -2 -165 -15z"/>
<path d="M1969 398 c-12 -40 -32 -108 -44 -150 l-23 -78 24 0 c19 0 24 7 30
35 6 34 8 35 49 35 41 0 43 -1 49 -35 7 -35 8 -35 58 -35 36 0 49 4 46 13 -3
6 -22 74 -43 150 l-38 137 -43 0 -43 0 -22 -72z"/>
<path d="M2170 321 l0 -151 50 0 50 0 0 60 0 60 40 0 c21 0 50 5 63 11 47 21
62 98 28 140 -18 22 -28 24 -125 27 l-106 4 0 -151z"/>
<path d="M680 404 c-19 -8 -42 -22 -52 -31 -21 -19 -25 -40 -5 -27 7 5 3 0
-10 -11 -13 -12 -23 -24 -23 -27 0 -11 29 -2 49 16 12 11 21 14 26 7 3 -6 1
-11 -4 -11 -13 0 -15 -37 -2 -44 5 -3 7 -15 4 -26 -4 -14 0 -20 12 -20 13 0
16 6 11 25 -9 37 2 30 13 -7 9 -32 9 -32 10 -5 1 34 21 36 21 1 0 -38 24 -25
28 15 2 20 0 31 -7 27 -5 -4 -13 -1 -17 5 -4 8 7 9 37 5 45 -5 87 13 75 32 -3
6 5 5 18 -1 15 -7 27 -23 30 -41 4 -16 9 -26 13 -23 11 11 -28 96 -53 116 -39
31 -94 46 -105 30 -4 -7 -4 -18 0 -24 11 -14 -2 -60 -17 -59 -7 1 -22 2 -34 3
-18 1 -20 3 -8 11 9 5 20 5 30 -2 8 -6 0 3 -18 19 -28 27 -30 32 -15 37 10 4
14 4 10 0 -8 -8 25 -34 35 -28 14 9 8 24 -9 24 -15 0 -14 2 3 15 26 20 1 19
-46 -1z"/>
<path d="M587 233 c-6 -34 18 -84 37 -77 12 5 45 -34 37 -44 -2 -2 1 -7 5 -10
4 -4 4 -2 1 4 -4 7 7 11 33 10 33 -1 39 -4 34 -18 -4 -14 0 -18 20 -18 16 0
26 6 26 15 0 8 5 15 10 15 6 0 10 -5 10 -10 0 -18 57 18 79 49 25 34 27 49 6
31 -10 -8 -15 -9 -15 -2 0 6 9 16 20 22 23 13 26 30 5 30 -8 0 -19 -9 -25 -20
-6 -11 -16 -20 -22 -20 -7 0 -6 5 2 15 10 13 11 18 1 28 -10 9 -11 8 -5 -7 5
-13 4 -17 -4 -12 -6 3 -13 -3 -17 -14 -3 -11 -15 -20 -25 -20 -11 0 -27 -11
-36 -25 -22 -33 -68 -34 -85 -3 -7 14 -14 18 -16 11 -3 -9 -11 -7 -25 7 -13
12 -18 25 -14 36 5 12 2 15 -10 10 -15 -6 -15 -4 -3 11 8 10 19 21 24 25 6 4
-2 8 -16 8 -21 0 -28 -6 -32 -27z"/>
<path d="M1345 140 c-3 -11 -15 -20 -25 -20 -11 0 -24 -8 -29 -17 -10 -17 -10
-17 -11 0 0 11 -8 17 -25 17 -18 0 -29 -8 -40 -32 -8 -18 -12 -23 -9 -10 6 25
-10 52 -32 52 -8 0 -14 -10 -14 -24 0 -13 -7 -30 -17 -37 -15 -13 -15 -12 -4
10 14 26 8 37 -30 46 -23 6 -27 2 -35 -27 -8 -26 -15 -32 -32 -30 -28 4 -29
-14 -2 -21 13 -3 18 -10 14 -21 -4 -11 -1 -16 10 -16 9 0 16 8 16 20 0 21 21
24 128 20 24 -1 50 4 59 12 12 9 15 10 9 1 -6 -10 25 -13 143 -13 132 0 151 2
160 17 10 17 10 17 11 1 0 -14 9 -18 37 -18 29 0 34 -3 25 -12 -7 -7 -12 -16
-12 -20 0 -16 23 -7 46 17 13 14 19 25 13 25 -6 0 -6 7 1 19 16 31 12 41 -18
41 -32 0 -52 -16 -52 -42 0 -10 -5 -18 -11 -18 -7 0 -8 7 -4 17 12 33 10 38
-22 41 -23 2 -33 -1 -33 -10 0 -8 -7 -23 -15 -34 -14 -18 -14 -17 -5 9 13 36
13 37 -3 37 -7 0 -18 -14 -24 -31 -13 -33 -38 -35 -38 -3 0 13 6 18 18 16 9
-2 17 2 17 8 0 17 -48 11 -60 -7 -11 -17 -11 -17 -6 0 8 25 -19 21 -33 -5
l-11 -23 6 23 c4 16 1 22 -11 22 -9 0 -18 -12 -21 -30 -4 -16 -10 -30 -15 -30
-13 0 -11 16 6 57 18 43 18 43 1 43 -8 0 -18 -9 -21 -20z"/>
<path d="M1926 128 c-7 -18 -16 -42 -21 -53 -4 -12 -9 -15 -12 -8 -2 7 1 21 7
32 10 19 8 21 -25 21 -31 0 -38 -5 -50 -32 l-14 -33 -1 33 c0 42 -19 41 -47
-3 l-22 -35 75 0 c67 0 76 -2 81 -20 7 -26 40 -26 48 0 5 15 15 20 39 20 19 0
33 5 34 13 0 6 4 22 7 35 6 19 4 22 -19 22 -19 0 -26 5 -26 20 0 34 -39 25
-54 -12z"/>
<path d="M2268 133 c-2 -12 -14 -17 -42 -17 -34 -1 -43 -6 -59 -34 l-19 -33
133 2 134 1 0 26 c0 28 -16 52 -34 52 -6 0 -11 -8 -11 -18 0 -10 -7 -27 -16
-38 -15 -19 -16 -19 -9 1 12 37 10 40 -23 38 -28 -1 -32 2 -27 18 4 13 2 19
-9 19 -8 0 -16 -8 -18 -17z"/>
</g>
</svg>
